{"title":"Blue_1/3Ddrip_xvid_ac3","uid":5386338,"size":1565306332,"categoryP":"video","categoryS":"movies","magnet":"?xt=urn:btih:9fffb778832cc63c40dd7ba4e6c0d244d9248d98&amp;dn=Blue_1%2F3Ddrip_xvid_ac3&amp;tr=udp%3A%2F%2Ftracker.openbittorrent.com%3A80&amp;tr=udp%3A%2F%2Fopen.demonii.com%3A1337&amp;tr=udp%3A%2F%2Ftracker.coppersurfer.tk%3A6969&amp;tr=udp%3A%2F%2Fexodus.desync.com%3A6969","seeders":0,"leechers":1,"uploader":"ankurcods","files":1,"time":1266906623,"description":"Complete name                    : D:[TDT]BLUE.DVDRIP..XVID.AC3..avi\nFormat                           : AVI\nFormat/Info                      : Audio Video Interleave\nFormat profile                   : OpenDML\nFile size                        : 1.46 GiB\nDuration                         : 1h 56mn\nOverall bit rate                 : 1 798 Kbps\nWriting application              : AVI-Mux GUI 1.17.7, Aug  8 2006  20:59:17\n\nVideo\nID                               : 0\nFormat                           : MPEG-4 Visual\nFormat profile                   : AdvancedSimple@L5\nFormat settings, BVOP            : Yes\nFormat settings, QPel            : No\nFormat settings, GMC             : No warppoints\nFormat settings, Matrix          : Default (H.263)\nMuxing mode                      : Packed bitstream\nCodec ID                         : XVID\nCodec ID/Hint                    : XviD\nDuration                         : 1h 56mn\nBit rate                         : 1 408 Kbps\nWidth                            : 720 pixels\nHeight                           : 360 pixels\nDisplay aspect ratio             : 2.000\nFrame rate                       : 23.976 fps\nResolution                       : 24 bits\nColorimetry                      : 4:2:0\nScan type                        : Progressive\nBits/(Pixel*Frame)               : 0.227\nStream size                      : 1.14 GiB (78%)\nWriting library                  : XviD 1.2.1 (UTC 2008-12-04)\n\nAudio\nID                               : 1\nFormat                           : AC-3\nFormat/Info                      : Audio Coding 3\nCodec ID                         : 2000\nDuration                         : 1h 56mn\nBit rate mode                    : Constant\nBit rate                         : 384 Kbps\nChannel(s)                       : 6 channels\nChannel positions                : Front: L C R, Surround: L R, LFE\nSampling rate                    : 48.0 KHz\nStream size                      : 319 MiB (21%)\nAlignment                        : Aligned on interleaves\nInterleave, duration             : 64 ms (1.53 video frames)\nInterleave, preload duration     : 192 ms\nTitle                            : VTS_02_1 T80 3_2ch 384Kbps DELAY 0m\n\nfor screenshots dyan.org","torrent":{"xt":"urn:btih:9fffb778832cc63c40dd7ba4e6c0d244d9248d98","amp;dn":"Blue_1%2F3Ddrip_xvid_ac3","amp;tr":["udp%3A%2F%2Ftracker.openbittorrent.com%3A80","udp%3A%2F%2Fopen.demonii.com%3A1337","udp%3A%2F%2Ftracker.coppersurfer.tk%3A6969","udp%3A%2F%2Fexodus.desync.com%3A6969"],"infoHash":"9fffb778832cc63c40dd7ba4e6c0d244d9248d98","infoHashBuffer":{"type":"Buffer","data":[159,255,183,120,131,44,198,60,64,221,123,164,230,192,210,68,217,36,141,152]},"announce":[],"urlList":[]}}